<svg width="136" height="40" viewBox="0 0 136 40" fill="none" xmlns="http://www.w3.org/2000/svg">
<rect width="136" height="40" rx="10" fill="#FB8500" fill-opacity="0.05"/>
<path d="M116 21C116.552 21 117 20.5523 117 20C117 19.4477 116.552 19 116 19L116 21ZM19.2929 19.2929C18.9024 19.6834 18.9024 20.3166 19.2929 20.7071L25.6569 27.0711C26.0474 27.4616 26.6805 27.4616 27.0711 27.0711C27.4616 26.6805 27.4616 26.0474 27.0711 25.6568L21.4142 20L27.0711 14.3431C27.4616 13.9526 27.4616 13.3195 27.0711 12.9289C26.6805 12.5384 26.0474 12.5384 25.6569 12.9289L19.2929 19.2929ZM116 19L20 19L20 21L116 21L116 19Z" fill="#FB8500"/>
</svg>
